<?xml version="1.0" encoding="UTF-8" standalone="no"?>
<!-- Created with Inkscape (http://www.inkscape.org/) -->

<svg
   width="600mm"
   height="600mm"
   viewBox="0 0 600 600"
   version="1.1"
   id="svg1"
   inkscape:version="1.4.2 (ebf0e94, 2025-05-08)"
   sodipodi:docname="logo.svg"
   xmlns:inkscape="http://www.inkscape.org/namespaces/inkscape"
   xmlns:sodipodi="http://sodipodi.sourceforge.net/DTD/sodipodi-0.dtd"
   xmlns="http://www.w3.org/2000/svg"
   xmlns:svg="http://www.w3.org/2000/svg">
  <sodipodi:namedview
     id="namedview1"
     pagecolor="#ffffff"
     bordercolor="#000000"
     borderopacity="0.25"
     inkscape:showpageshadow="2"
     inkscape:pageopacity="0.0"
     inkscape:pagecheckerboard="0"
     inkscape:deskcolor="#d1d1d1"
     inkscape:document-units="mm"
     inkscape:zoom="0.29009011"
     inkscape:cx="1118.618"
     inkscape:cy="992.79498"
     inkscape:window-width="1920"
     inkscape:window-height="1008"
     inkscape:window-x="0"
     inkscape:window-y="0"
     inkscape:window-maximized="1"
     inkscape:current-layer="svg1" />
  <defs
     id="defs1" />
  <path
     style="fill:#aa2a3f;fill-opacity:1;stroke-width:0.264583"
     id="path5"
     d="m 539.63651,27.573195 c -0.82687,-0.443897 -6.09457,-3.283032 -6.95475,-3.700176 -0.85765,-0.415931 -1.67476,-1.109452 -2.62777,-1.127879 -0.53319,-0.01031 -1.37019,0.547132 -1.2038,1.053794 1.16343,3.542245 9.38117,11.784164 10.50965,13.035598 8.09411,9.246317 16.41242,18.346798 23.88603,28.116694 1.20631,1.576956 7.07601,9.520152 8.06254,12.44874 0.18947,0.562412 -0.38561,1.122546 -0.57841,1.683817 -6.46033,-3.573526 0.14753,-0.05364 -11.64971,-5.314836 -12.43131,-5.543976 -15.55408,-7.483883 -28.7361,-12.974246 -13.86983,-5.776844 -22.06623,-8.536308 -36.19503,-13.628436 -15.38351,-5.097153 -15.77652,-5.419214 -30.46478,-9.61531 -0.17897,-0.05113 -15.91908,-4.623247 -18.32616,-4.378952 -0.85799,0.08708 -1.75974,1.567518 -1.25161,2.26433 1.76305,2.417675 4.66701,3.746077 7.00053,5.619115 3.14574,2.102739 6.28883,4.209442 9.43724,6.308217 4.36705,2.911163 8.86225,5.637718 13.1091,8.72159 16.51754,11.994295 31.96722,25.752843 45.18805,41.348765 4.23069,4.99075 7.94907,10.39412 11.92361,15.59118 4.57131,7.42799 11.34486,17.57925 14.7419,25.97061 0.92747,2.29103 1.86271,4.75256 1.69534,7.21853 -0.0694,1.02191 -1.29805,1.98428 -2.32193,2.01265 -1.6923,0.0469 -3.21781,-1.08161 -4.74274,-1.81693 -2.99598,-1.44464 -5.86396,-3.14091 -8.79594,-4.71137 -27.80501,-16.49265 -57.2458,-30.57394 -88.63454,-38.79354 -24.21834,-6.341932 -37.32019,-7.24569 -61.76841,-10.363434 -30.24171,-1.954104 -18.86553,-1.66592 -46.20863,-1.912041 -4.71924,-0.04248 -9.44271,-0.25093 -14.15814,-0.05705 -2.21433,0.09105 -4.87622,-0.500028 -6.58601,0.909965 -0.92424,0.762183 0.53501,2.607847 1.55151,3.241773 4.98952,3.111651 10.59993,5.094362 15.89988,7.641537 26.08077,7.81428 51.52167,17.99081 74.81054,32.22894 6.66567,4.07521 13.29049,8.28071 19.41015,13.13751 6.88591,5.46495 13.00461,11.83244 19.5069,17.74867 16.57054,19.30385 18.21519,19.81988 31.7658,41.03097 4.05694,6.35041 7.89921,12.85185 11.35502,19.5484 4.00354,7.75802 10.10793,20.48347 10.36431,30.10002 0.0631,2.36755 -1.45376,4.50818 -2.18065,6.76227 -3.18291,-0.78285 -6.50189,-1.13995 -9.54873,-2.34855 -5.08704,-2.01791 -9.91653,-4.64951 -14.71713,-7.27713 -9.12434,-4.99422 -32.50909,-19.54136 -40.74189,-24.16293 -28.42178,-15.95488 -27.37503,-14.52053 -58.63913,-28.17643 -31.47144,-12.31451 -63.34934,-24.04909 -96.68708,-30.27178 -9.7881,-1.82701 -19.68744,-3.09746 -29.60592,-3.97417 -18.2596,-1.61399 -29.49739,-0.79911 -47.37623,-0.25892 -5.29181,0.92745 -10.74615,1.18424 -15.87542,2.78237 -5.6035,1.74588 -11.60643,4.55272 -6.95082,11.3123 4.8601,7.05645 25.13387,16.25936 29.0327,18.19252 7.15004,3.54521 14.50294,6.66562 21.75441,9.99843 32.33398,15.4521 61.92051,35.68962 89.16704,58.8863 14.63767,12.46198 35.06962,31.98003 47.46122,47.24164 5.64407,6.95124 10.24366,14.68904 15.36549,22.03355 5.16732,11.96221 11.04792,21.89395 11.51747,35.17405 0.13669,3.8653 -0.31681,8.0213 -2.21877,11.38907 -1.53458,2.7173 -4.53326,4.53499 -7.43,5.69585 -7.89241,3.16288 -15.29043,0.63124 -23.15443,-0.67427 -5.15355,-1.72844 -10.37706,-3.26086 -15.46066,-5.18536 -5.91793,-2.24036 -11.65857,-4.92492 -17.52322,-7.30133 -7.31697,-2.9649 -14.63948,-5.91939 -22.02016,-8.72196 -18.06289,-6.85882 -37.47759,-13.78567 -55.90769,-19.53271 -9.28375,-2.89494 -18.68043,-5.41441 -28.02064,-8.12162 -25.75909,-6.20922 -52.12438,-10.01451 -78.659,-10.05973 -12.47595,-0.0212 -24.32449,0.29245 -36.03551,5.05066 -3.80971,1.54792 -6.958814,4.38346 -10.438223,6.57519 -1.666658,2.6907 -4.228393,5.00253 -4.999979,8.07212 -0.709954,2.82437 -0.532278,6.10357 0.783669,8.70154 3.891881,7.68347 15.330763,13.74589 21.980043,17.27517 18.02058,9.56495 21.91091,10.56576 39.69701,17.52671 12.46212,4.75764 26.97938,9.9241 38.80609,16.05267 6.3928,3.31272 12.51408,7.14462 18.52721,11.10499 10.64273,7.0095 24.8456,17.14539 33.20266,27.20223 3.73938,4.49996 6.16691,9.94482 9.25036,14.91721 0.93831,4.8885 2.80026,9.6878 2.81494,14.66551 0.0212,7.19945 -3.61835,17.64456 -9.35081,22.53792 -3.40185,2.90391 -7.69094,4.79357 -11.99259,6.01875 -12.83533,3.65572 -24.10225,1.91 -37.21488,1.27836 -31.24311,-3.72946 -61.88214,-11.06668 -92.86883,-16.32599 -6.835922,-1.16025 -13.669601,-2.38847 -20.561796,-3.14589 -6.359443,-0.69887 -12.769638,-0.81251 -19.154457,-1.21878 -5.796682,0.12197 -11.632647,-0.31872 -17.390049,0.36595 -10.441424,1.24166 -20.934336,4.55699 -29.829572,10.28081 -4.162288,2.67829 -8.5259855,5.51333 -11.3412511,9.58424 -3.0452331,4.40343 -3.68990231,10.05337 -5.6772699,15.0247 -1.9242941,4.81354 -4.0370142,9.54961 -6.0555215,14.32441 0,0 0.697715,0.3914 0.697715,0.3914 v 0 c 2.0162808,-4.77091 3.1652511,-10.01019 6.04884195,-14.31274 2.98809605,-4.45847 7.33479125,-7.84902 11.25848755,-11.51117 3.572902,-3.33473 7.117778,-6.77691 11.205678,-9.45558 8.912833,-5.84025 18.445847,-9.00311 28.943323,-10.54139 5.467776,-0.80127 11.035797,-0.60455 16.553699,-0.90681 6.187133,0.27755 12.390757,0.30274 18.561401,0.83267 6.560788,0.5634 13.087697,1.48929 19.602951,2.44472 31.37608,4.60119 62.20668,12.18634 93.57742,16.79909 12.31366,0.98523 27.79504,3.26125 40.26047,0.46249 4.65545,-1.04526 9.39429,-2.83811 13.0275,-5.93093 3.09048,-2.6308 4.92371,-6.61879 6.22925,-10.46168 4.24213,-12.48687 1.13034,-16.38302 -2.10615,-28.89988 -3.50524,-5.19618 -6.38623,-10.87323 -10.51573,-15.58856 -8.86419,-10.12169 -23.83898,-20.78233 -34.87946,-27.94513 -7.66229,-4.97113 -15.43146,-9.80853 -23.49045,-14.10684 -13.40462,-7.14944 -25.97503,-11.56171 -40.01867,-16.98705 -6.14412,-2.49999 -12.29087,-4.99356 -18.43237,-7.49998 -9.34604,-3.81424 -14.60681,-5.33419 -22.91657,-11.90469 -5.31151,-4.19979 -9.502487,-8.79547 -8.524651,-16.0664 0.406326,-3.02133 2.440136,-5.58747 3.660211,-8.38121 2.89994,-2.46991 5.36254,-5.57326 8.69983,-7.40973 10.09743,-5.55652 21.42049,-6.67819 32.68095,-7.22776 26.02767,-1.27024 51.78968,2.79136 77.01777,8.88672 9.33956,2.70804 18.73559,5.22843 28.0187,8.12411 18.76807,5.85433 38.2971,12.75257 56.55941,20.05335 8.03746,3.21316 15.92172,6.79691 23.88259,10.19538 6.15875,2.67062 12.24729,5.50942 18.47625,8.0119 5.59953,2.24959 11.3298,4.15899 16.99469,6.2385 7.57793,1.47244 17.35756,4.91464 25.2549,1.22521 8.26053,-3.85911 8.27826,-11.63849 6.96476,-19.4701 -2.39557,-14.28343 -9.19533,-24.50579 -15.80129,-37.25532 -5.13109,-7.35248 -9.74164,-15.0971 -15.39322,-22.05744 -6.575,-8.09757 -13.81175,-15.65391 -21.20323,-23.01375 -16.89097,-16.81872 -36.9979,-34.10338 -56.32521,-47.96996 -25.74789,-18.47308 -33.86323,-21.77579 -60.74287,-36.17614 -8.60436,-4.42087 -17.19774,-8.86316 -25.81309,-13.26259 -5.62592,-2.87288 -10.24413,-4.35535 -14.41903,-9.60472 -3.76716,-4.73669 -3.28539,-8.99406 2.48711,-12.33176 4.08492,-2.36193 8.97456,-2.91863 13.46185,-4.37795 6.53116,-0.71314 13.026,-1.95825 19.59348,-2.13942 8.55227,-0.23592 17.12863,0.13986 25.6511,0.89131 9.91739,0.87445 19.81472,2.15165 29.60118,3.98045 33.33448,6.22919 65.20989,17.96577 96.67824,30.28315 29.89911,13.06574 30.48445,12.36954 57.26539,27.39219 0.18468,0.10359 41.99914,25.07072 42.8983,25.58162 5.80739,3.29972 11.4699,6.96277 17.66607,9.45699 3.47223,1.39773 7.35454,1.39672 11.03182,2.09509 -0.1761,-2.77617 0.1079,-5.62049 -0.52826,-8.32853 -2.16403,-9.21191 -8.68622,-23.49349 -12.76649,-31.26588 -11.57261,-22.04431 -26.03902,-42.47537 -43.11124,-60.60179 -6.42395,-5.88977 -12.42263,-12.28002 -19.27188,-17.66931 -6.66514,-5.24445 -13.9193,-9.71144 -21.15301,-14.13881 -7.04416,-4.31134 -14.2761,-8.32752 -21.64546,-12.05581 -18.86648,-9.5449 -38.87123,-16.50758 -58.46725,-24.328881 -0.17621,0.343308 -0.15687,1.133343 -0.52864,1.029922 -4.28185,-1.191122 -4.85386,-3.18698 0.0353,-4.982284 9.90523,-3.637182 20.86417,-2.664227 31.07277,-2.278991 8.55605,0.322874 17.08841,1.106988 25.63262,1.66048 24.45251,3.122642 37.53737,4.025956 61.75947,10.375204 32.54999,8.53221 63.09103,23.20728 91.46087,41.09372 0.0726,0.0413 13.42544,8.90636 17.12325,7.69378 1.17597,-0.38561 0.5211,-2.53543 0.13227,-3.71031 -0.9802,-2.9616 -2.67367,-5.63974 -4.13843,-8.39407 -7.01524,-13.19135 -7.4482,-13.15682 -16.19975,-26.64333 -3.87381,-5.15895 -7.45643,-10.55001 -11.62148,-15.47684 -4.37396,-5.173977 -9.1794,-9.971672 -13.95489,-14.777529 -9.07452,-9.132231 -18.0613,-17.455356 -28.1687,-25.398065 -3.56357,-2.80038 -7.36243,-5.287757 -11.05498,-7.915744 -2.69148,-1.915522 -5.39803,-3.809804 -8.09705,-5.714709 -1.6207,-1.299821 -3.30493,-2.524172 -4.86209,-3.899466 -0.73165,-0.646181 -2.85051,-1.693666 -1.98781,-2.150385 1.66166,-0.879702 3.77555,-0.05107 5.63626,0.218871 3.26244,0.473308 6.47748,1.241314 9.68468,2.003849 12.02055,2.857971 16.20176,4.377121 28.54163,8.155469 5.98821,2.128371 12.02989,4.111876 17.96463,6.385112 13.95587,5.345645 22.24315,9.105736 35.55714,15.49545 4.86966,2.33707 9.67211,4.811649 14.51049,7.212796 3.82146,1.896464 7.47744,4.174103 11.46897,5.680032 1.49265,0.56315 3.17688,0.296588 4.76531,0.444879 -0.405,-0.992627 -0.64426,-2.070375 -1.21502,-2.97788 -2.00422,-3.186698 -8.82978,-11.391133 -10.68853,-13.66094 -7.52211,-9.18549 -15.36375,-18.106663 -22.5678,-27.549002 -1.60218,-2.324872 -3.204,-4.649999 -4.80655,-6.974617 -0.67675,-0.981678 -1.32689,-1.982301 -2.03137,-2.94427 -0.0903,-0.123402 -0.49868,-0.300781 -0.34573,-0.301678 1.27598,-0.0075 3.42339,1.247944 4.19966,1.617549 0.93829,0.446756 1.871,0.905181 2.80651,1.357775 z" />
  <g
     inkscape:label="Layer 1"
     inkscape:groupmode="layer"
     id="layer1">
    <path
       style="fill:#c6e8a1;fill-opacity:1;stroke-width:0.523763"
       id="path3"
       d="m 26.990524,8.3443602 c 2.334746,31.3872148 4.132621,62.7632248 4.658475,94.2089998 0.231805,13.86209 0.09224,27.72711 0.322644,41.58924 0.245944,14.79693 0.737574,29.59057 1.106358,44.38584 0.193301,13.76719 0.409456,27.5342 0.579939,41.30158 0.147533,11.91486 -0.123092,23.83631 0.37411,35.74509 1.317372,31.55289 6.085995,62.83479 12.892898,93.89334 1.761185,5.6398 3.067981,11.50655 6.258738,16.80309 0.729476,1.21089 1.401346,2.65114 2.854155,3.3219 16.084555,7.42629 32.065814,15.22851 49.296829,20.75637 1.93712,0.62145 3.36638,-2.08971 4.48497,-3.50271 1.68569,-2.12945 2.5183,-4.62311 3.77746,-6.93468 8.36408,-21.62267 12.41574,-44.12904 19.75016,-65.9642 2.92042,-8.69431 6.07782,-17.3448 9.67604,-25.87394 3.90495,-9.25619 8.54726,-18.3014 12.82085,-27.45209 22.46983,-42.71031 53.87774,-81.99343 92.53468,-116.42633 5.96404,-5.31236 12.35731,-10.30401 18.53598,-15.45602 14.86755,-10.614 15.74742,-11.97672 31.0639,-20.43021 8.20398,-4.52796 17.83537,-9.97572 28.39089,-9.47216 2.08015,0.0994 4.04756,0.79702 6.07135,1.19553 19.61318,10.72335 -12.57062,-7.05809 -35.4179,-14.897092 -2.24162,-0.769093 2.84757,3.211833 3.8127,5.008262 3.9553,7.36233 3.97974,15.48408 4.30557,23.31999 -0.3614,10.25714 -0.11226,13.41231 -2.19995,24.12135 -3.85052,19.7518 -11.12335,39.79224 -19.01837,58.67501 -3.83657,9.176 -8.1924,18.20693 -12.28858,27.31038 -20.71867,40.50749 -39.33408,81.65819 -56.19593,123.29696 -4.05078,10.00304 -8.25572,19.97267 -11.82933,30.09214 -3.28049,9.28932 -5.81553,18.73787 -8.72331,28.10686 -4.0126,19.4813 -6.5547,28.64409 -8.19062,47.8028 -1.22018,14.28981 -0.88591,28.63824 4.82112,42.34801 1.0726,2.5766 2.71721,4.97644 4.07582,7.4646 12.84895,15.00326 9.81017,12.9364 49.57907,25.36632 2.79511,0.87359 5.17875,-2.48738 7.4144,-4.09215 10.90757,-7.8297 16.61181,-18.79206 22.85803,-29.0832 15.27445,-32.83427 31.23985,-65.45753 46.68642,-98.23917 4.5989,-9.76014 8.95285,-19.59515 13.69369,-29.31144 4.69912,-9.63075 9.74881,-19.14898 14.62322,-28.72347 18.89919,-34.04566 36.60002,-69.06778 63.38311,-99.79063 16.68247,-19.13647 21.76294,-21.94659 41.79566,-38.2674 20.50954,-13.57309 20.17984,-14.75499 43.02974,-24.63221 6.37678,-2.75644 12.88307,-5.38758 19.68809,-7.3783 5.72578,-1.675 11.73956,-2.68678 17.73399,-3.56909 21.13366,-3.11057 8.06407,0.8515 17.67678,-2.302 -9.20202,-4.93627 -8.67151,-5.11006 -0.29487,1.35893 0,0 1.62522,0.55837 1.62522,0.55837 v 0 c -5.20286,-9.47214 -0.62749,-2.8733 -21.79101,-14.40381 -5.20965,-1.5456 -10.10538,-4.1688 -15.62901,-4.63682 -5.64139,-0.47801 -26.04266,5.81707 -29.49028,6.93945 -6.97693,2.27134 -14.0569,4.42898 -20.64514,7.35362 -20.35944,9.038 -24.27212,13.4535 -41.64223,26.15956 -7.05998,6.08229 -14.5736,11.84486 -21.17996,18.24687 -9.18913,8.90496 -31.71108,34.7335 -38.52341,44.4969 -5.40483,7.74614 -9.4939,16.0387 -14.07729,24.11863 -14.53831,25.62922 -15.05395,27.34768 -28.53703,53.68505 -28.05667,55.26635 -1.01375,2.27353 -29.60586,57.48559 -13.05896,25.21716 -25.1188,50.9489 -40.63215,75.29653 -4.15207,6.51656 -8.94562,12.75684 -13.41842,19.13526 -6.05346,7.50782 -10.3275,13.86658 -18.11786,20.13592 -2.32211,1.86876 -4.83772,3.67114 -7.74561,4.9039 -1.89944,0.80519 -7.98092,-0.0282 -6.30928,1.05433 82.15704,53.20933 36.39837,18.61329 29.36449,13.20565 -1.67362,-2.37981 -3.65989,-4.6346 -5.02088,-7.13947 -10.4914,-19.30917 -11.03252,-44.91965 -8.84121,-65.41917 0.9307,-8.70651 2.90884,-17.32035 4.36326,-25.98054 7.2943,-26.67517 8.16225,-32.13312 18.16928,-58.95231 4.05752,-10.87431 8.34166,-21.70072 13.08932,-32.39363 13.50461,-30.41563 30.45123,-59.76089 45.22632,-89.77138 5.1451,-9.6419 20.98674,-39.18462 26.36896,-49.7934 3.13656,-6.1824 6.42381,-12.328 9.05792,-18.65956 1.96919,-4.73337 3.25879,-9.63284 4.72961,-14.48142 4.09245,-13.4907 3.28197,-10.98226 5.30039,-23.60352 0.0592,-8.16237 0.25862,-16.3883 -2.18509,-24.39032 -0.62591,-2.04958 -0.43553,-4.72922 -2.54139,-5.99321 -37.40134,-22.449494 -31.33126,-20.5867 -53.8959,-25.870515 -2.14259,0.05513 -4.32315,-0.161472 -6.42778,0.165396 -10.20062,1.584312 -18.45242,7.750673 -25.79938,13.159984 -11.4991,8.466395 -16.52272,13.161885 -27.66076,22.674085 -5.72235,5.45167 -11.67116,10.7553 -17.16704,16.35499 -6.21565,6.33306 -12.08964,12.87899 -17.95065,19.42612 -27.87804,31.14142 -53.79893,63.60306 -72.21132,99.12937 -13.7487,25.59847 -14.81621,26.5073 -26.334847,51.99497 -3.180848,7.03838 -6.155874,14.13656 -9.059628,21.25165 -5.861529,14.36251 -6.010157,17.50476 -13.039376,30.85938 -1.668909,3.17072 -3.797644,6.17261 -5.696471,9.25892 -1.440802,1.55455 -2.596614,3.30883 -4.32241,4.66365 -0.684897,0.53769 -1.786771,0.55583 -2.680164,0.83374 13.952596,6.78847 27.905183,13.57696 41.857786,20.36544 1.75875,0.85609 -3.8765,-1.35563 -5.281894,-2.56098 -5.265713,-4.51617 -8.714205,-12.55228 -11.545024,-17.74421 -2.028356,-5.35343 -4.360584,-10.6387 -6.085069,-16.06027 C 76.93057,344.64468 72.613916,325.04462 70.096689,310.69142 63.63224,273.83113 60.92464,236.64279 59.834356,199.45158 c 0.421256,-41.10098 -0.04683,-44.20767 2.262986,-84.39571 0.683202,-11.88686 1.674549,-23.761111 2.57259,-35.638767 1.201461,-15.890741 3.173518,-31.377928 2.548798,-47.275234 -0.110671,-2.81617 -0.893637,-5.589328 -1.340456,-8.383992 z" />
    <path
       style="fill:#a7a1e8;fill-opacity:1;stroke-width:0.475481"
       id="path4"
       d="m 590.57823,225.03511 c 0.50152,-1.34944 1.34425,-2.64366 1.5046,-4.04832 1.32038,-11.5693 -5.21724,-23.64308 -11.04469,-33.66898 -10.06631,-17.31847 -11.91533,-18.06242 -25.49241,-34.0359 -6.41554,-5.10275 -12.20807,-10.79229 -19.24656,-15.30821 -19.78045,-12.6913 -58.64769,-26.36229 -79.32971,-27.82947 -13.61404,-0.96577 -26.67911,5.19231 -39.4046,9.27829 -38.13636,12.24505 -54.22416,22.89278 -88.81463,41.23384 -14.51824,11.64878 -30.33024,22.30251 -43.55467,34.94635 -14.36597,13.7352 -26.94486,28.71529 -38.92606,43.91299 -33.94818,43.0622 -61.63278,89.14331 -60.43919,141.82084 0.37132,16.3884 5.99055,32.41174 8.98583,48.61764 13.97809,33.22297 19.58215,52.93356 42.04616,82.66096 8.15788,10.79555 17.78876,20.88917 28.29946,30.21454 21.27538,18.87609 49.22869,33.15495 78.07616,42.67492 9.56019,3.15498 20.2786,3.01376 30.41789,4.52061 10.36508,-2.18113 21.31827,-2.97468 31.09518,-6.54339 11.03671,-4.02852 20.94939,-9.97411 30.57214,-15.96594 28.53658,-17.769 52.89692,-42.08719 70.96234,-67.37777 4.9713,-6.9595 8.76528,-14.44204 13.14791,-21.66301 3.60924,-13.73957 8.93427,-21.79573 1.55568,-35.25752 -2.30782,-4.21043 -6.09277,-8.1482 -10.85611,-10.6047 -16.08533,-8.29552 -38.90643,-22.88972 -60.6151,-16.66193 -4.08257,1.1712 -6.89295,4.28814 -10.33942,6.43223 -0.25891,3.09672 -0.51784,6.19338 -0.77676,9.29009 0,0 1.33459,0.70477 1.33459,0.70477 v 0 c 5.74042,-0.0267 11.4809,-0.0537 17.22138,-0.0805 6.05325,-0.39502 12.09008,-1.03774 18.15975,-1.18505 5.62926,-0.13659 14.74336,4.60706 16.8902,0.33438 2.13235,-4.24385 -15.11684,-13.29479 -12.39255,-9.28556 2.84323,4.18425 9.71013,5.75665 12.76777,9.83777 10.05619,13.42221 5.77496,20.80206 3.93152,35.80098 -3.48495,7.52582 -6.15813,15.33975 -10.45472,22.57742 -19.93404,33.57875 -57.97482,68.06792 -101.17739,81.71225 -9.90717,3.12893 -20.75419,3.67209 -31.13129,5.50811 -3.60062,-0.49238 -32.55544,-2.99091 -40.56342,-7.55929 -26.05514,-14.86394 -44.96672,-30.4767 -62.63335,-52.43611 -25.76354,-32.02381 -28.89607,-46.81328 -44.42288,-83.15995 -2.50965,-15.89985 -7.40101,-31.66718 -7.52891,-47.69954 -0.27364,-34.30199 9.95706,-64.74082 27.02532,-95.80022 17.56493,-31.96326 43.05275,-63.44032 72.35279,-88.95712 14.04944,-12.23532 30.76967,-22.20189 46.15451,-33.30283 34.8443,-17.47573 52.84922,-29.19464 92.24254,-38.66643 14.07423,-3.38402 29.43621,-2.22295 43.41205,-5.8713 3.19012,-0.83276 2.2062,-7.39392 5.4985,-6.89667 13.91323,2.10141 32.90846,18.81214 42.25913,25.99263 4.93385,5.5769 10.2781,10.92418 14.8016,16.73069 7.77999,9.98659 14.12706,20.6168 18.79715,31.82758 3.90445,9.37278 2.74228,9.90992 5.04735,18.3431 0.47301,1.73053 1.18185,3.4119 1.7728,5.11785 z" />
  </g>
</svg>
